<svg xmlns="http://www.w3.org/2000/svg" xmlns:xlink="http://www.w3.org/1999/xlink" width="375" zoomAndPan="magnify" viewBox="0 0 375 374.999991" height="374.999991" preserveAspectRatio="xMidYMid meet" version="1.0"><defs><g/><clipPath id="5a2204de3b"><path d="M 190.429688 168 L 238 168 L 238 195 L 190.429688 195 Z M 190.429688 168 " clip-rule="nonzero"/></clipPath><clipPath id="088a1db2e3"><path d="M 190.429688 163.148438 L 287.929688 163.148438 L 287.929688 211.898438 L 190.429688 211.898438 Z M 190.429688 163.148438 " clip-rule="nonzero"/></clipPath></defs><g clip-path="url(#5a2204de3b)"><path fill="#3f3f3f" d="M 237.058594 168.976562 L 190.429688 168.976562 L 190.429688 171.09375 L 234.941406 171.09375 L 234.941406 192.292969 L 190.429688 192.292969 L 190.429688 194.410156 L 237.058594 194.410156 Z M 237.058594 168.976562 " fill-opacity="1" fill-rule="nonzero"/></g><path fill="#3f3f3f" d="M 251.898438 175.335938 L 256.136719 175.335938 L 256.136719 177.453125 L 251.898438 177.453125 Z M 251.898438 175.335938 " fill-opacity="1" fill-rule="nonzero"/><path fill="#3f3f3f" d="M 247.65625 175.335938 L 249.777344 175.335938 L 249.777344 177.453125 L 247.65625 177.453125 Z M 247.65625 175.335938 " fill-opacity="1" fill-rule="nonzero"/><g clip-path="url(#088a1db2e3)"><path fill="#3f3f3f" d="M 285.808594 190.171875 L 270.972656 185.933594 L 268.855469 179.574219 L 266.734375 179.574219 L 258.253906 171.09375 L 243.417969 171.09375 L 243.417969 196.53125 L 241.300781 196.53125 L 241.300781 168.976562 C 241.300781 167.144531 240.191406 163.675781 236 163.675781 L 236 165.796875 C 238.992188 165.796875 239.171875 168.449219 239.179688 168.976562 L 239.179688 196.53125 L 232.820312 196.53125 L 232.820312 202.890625 L 228.472656 202.890625 C 227.957031 199.296875 224.894531 196.53125 221.164062 196.53125 C 217.429688 196.53125 214.371094 199.296875 213.851562 202.890625 L 211.515625 202.890625 C 211 199.296875 207.9375 196.53125 204.207031 196.53125 C 200.472656 196.53125 197.414062 199.296875 196.894531 202.890625 L 190.429688 202.890625 L 190.429688 205.007812 L 196.894531 205.007812 C 197.414062 208.597656 200.472656 211.367188 204.207031 211.367188 C 207.941406 211.367188 211 208.597656 211.515625 205.007812 L 213.851562 205.007812 C 214.371094 208.597656 217.429688 211.367188 221.164062 211.367188 C 224.894531 211.367188 227.957031 208.597656 228.472656 205.007812 L 232.820312 205.007812 L 232.820312 207.128906 L 256.136719 207.128906 L 256.136719 205.007812 L 264.722656 205.007812 C 265.238281 208.597656 268.300781 211.367188 272.03125 211.367188 C 275.765625 211.367188 278.824219 208.597656 279.34375 205.007812 L 287.929688 205.007812 L 287.929688 198.648438 L 285.808594 198.648438 Z M 204.207031 209.246094 C 201.285156 209.246094 198.90625 206.871094 198.90625 203.949219 C 198.90625 201.027344 201.285156 198.648438 204.207031 198.648438 C 207.128906 198.648438 209.503906 201.027344 209.503906 203.949219 C 209.503906 206.871094 207.128906 209.246094 204.207031 209.246094 Z M 221.164062 209.246094 C 218.242188 209.246094 215.863281 206.871094 215.863281 203.949219 C 215.863281 201.027344 218.242188 198.648438 221.164062 198.648438 C 224.085938 198.648438 226.460938 201.027344 226.460938 203.949219 C 226.460938 206.871094 224.085938 209.246094 221.164062 209.246094 Z M 267.324219 181.695312 L 268.738281 185.933594 L 258.253906 185.933594 L 258.253906 181.695312 Z M 249.777344 205.007812 L 234.941406 205.007812 L 234.941406 198.648438 L 249.777344 198.648438 Z M 254.015625 205.007812 L 251.898438 205.007812 L 251.898438 198.648438 L 254.015625 198.648438 Z M 272.03125 209.246094 C 269.109375 209.246094 266.734375 206.871094 266.734375 203.949219 C 266.734375 201.027344 269.109375 198.648438 272.03125 198.648438 C 274.957031 198.648438 277.332031 201.027344 277.332031 203.949219 C 277.332031 206.871094 274.957031 209.246094 272.03125 209.246094 Z M 283.691406 202.890625 L 279.34375 202.890625 C 278.824219 199.296875 275.765625 196.53125 272.03125 196.53125 C 268.300781 196.53125 265.238281 199.296875 264.722656 202.890625 L 256.136719 202.890625 L 256.136719 196.53125 L 245.539062 196.53125 L 245.539062 173.214844 L 257.378906 173.214844 L 263.738281 179.574219 L 256.136719 179.574219 L 256.136719 188.050781 L 270.675781 188.050781 L 283.691406 191.769531 Z M 283.691406 202.890625 " fill-opacity="1" fill-rule="nonzero"/></g><path fill="#3f3f3f" d="M 198.90625 173.214844 L 201.027344 173.214844 L 201.027344 175.335938 L 198.90625 175.335938 Z M 198.90625 173.214844 " fill-opacity="1" fill-rule="nonzero"/><path fill="#3f3f3f" d="M 203.148438 173.214844 L 232.820312 173.214844 L 232.820312 175.335938 L 203.148438 175.335938 Z M 203.148438 173.214844 " fill-opacity="1" fill-rule="nonzero"/><path fill="#3f3f3f" d="M 207.386719 203.949219 C 207.386719 204.371094 207.304688 204.777344 207.144531 205.164062 C 206.984375 205.554688 206.753906 205.898438 206.453125 206.195312 C 206.15625 206.496094 205.8125 206.726562 205.421875 206.886719 C 205.035156 207.046875 204.628906 207.128906 204.207031 207.128906 C 203.785156 207.128906 203.378906 207.046875 202.988281 206.886719 C 202.601562 206.726562 202.257812 206.496094 201.957031 206.195312 C 201.660156 205.898438 201.429688 205.554688 201.269531 205.164062 C 201.109375 204.777344 201.027344 204.371094 201.027344 203.949219 C 201.027344 203.527344 201.109375 203.121094 201.269531 202.730469 C 201.429688 202.34375 201.660156 202 201.957031 201.699219 C 202.257812 201.402344 202.601562 201.171875 202.988281 201.011719 C 203.378906 200.851562 203.785156 200.769531 204.207031 200.769531 C 204.628906 200.769531 205.035156 200.851562 205.421875 201.011719 C 205.8125 201.171875 206.15625 201.402344 206.453125 201.699219 C 206.753906 202 206.984375 202.34375 207.144531 202.730469 C 207.304688 203.121094 207.386719 203.527344 207.386719 203.949219 Z M 207.386719 203.949219 " fill-opacity="1" fill-rule="nonzero"/><path fill="#3f3f3f" d="M 224.34375 203.949219 C 224.34375 204.371094 224.261719 204.777344 224.101562 205.164062 C 223.9375 205.554688 223.710938 205.898438 223.410156 206.195312 C 223.113281 206.496094 222.769531 206.726562 222.378906 206.886719 C 221.992188 207.046875 221.585938 207.128906 221.164062 207.128906 C 220.742188 207.128906 220.335938 207.046875 219.945312 206.886719 C 219.558594 206.726562 219.214844 206.496094 218.914062 206.195312 C 218.617188 205.898438 218.386719 205.554688 218.226562 205.164062 C 218.066406 204.777344 217.984375 204.371094 217.984375 203.949219 C 217.984375 203.527344 218.066406 203.121094 218.226562 202.730469 C 218.386719 202.34375 218.617188 202 218.914062 201.699219 C 219.214844 201.402344 219.558594 201.171875 219.945312 201.011719 C 220.335938 200.851562 220.742188 200.769531 221.164062 200.769531 C 221.585938 200.769531 221.992188 200.851562 222.378906 201.011719 C 222.769531 201.171875 223.113281 201.402344 223.410156 201.699219 C 223.710938 202 223.9375 202.34375 224.101562 202.730469 C 224.261719 203.121094 224.34375 203.527344 224.34375 203.949219 Z M 224.34375 203.949219 " fill-opacity="1" fill-rule="nonzero"/><path fill="#3f3f3f" d="M 275.210938 203.949219 C 275.210938 204.371094 275.132812 204.777344 274.96875 205.164062 C 274.808594 205.554688 274.578125 205.898438 274.28125 206.195312 C 273.984375 206.496094 273.640625 206.726562 273.25 206.886719 C 272.859375 207.046875 272.453125 207.128906 272.03125 207.128906 C 271.609375 207.128906 271.207031 207.046875 270.816406 206.886719 C 270.425781 206.726562 270.082031 206.496094 269.785156 206.195312 C 269.488281 205.898438 269.257812 205.554688 269.09375 205.164062 C 268.933594 204.777344 268.855469 204.371094 268.855469 203.949219 C 268.855469 203.527344 268.933594 203.121094 269.09375 202.730469 C 269.257812 202.34375 269.488281 202 269.785156 201.699219 C 270.082031 201.402344 270.425781 201.171875 270.816406 201.011719 C 271.207031 200.851562 271.609375 200.769531 272.03125 200.769531 C 272.453125 200.769531 272.859375 200.851562 273.25 201.011719 C 273.640625 201.171875 273.984375 201.402344 274.28125 201.699219 C 274.578125 202 274.808594 202.34375 274.96875 202.730469 C 275.132812 203.121094 275.210938 203.527344 275.210938 203.949219 Z M 275.210938 203.949219 " fill-opacity="1" fill-rule="nonzero"/><g fill="#3f3f3f" fill-opacity="1"><g transform="translate(73.320776, 203.283678)"><g/></g></g><g fill="#3f3f3f" fill-opacity="1"><g transform="translate(79.953588, 203.283678)"><g><path d="M 1.8125 -0.710938 L 2.03125 -0.269531 L 2.621094 0 L 5.316406 -0.0507812 L 6.050781 -0.269531 L 6.320312 -0.660156 L 6.367188 -1.125 L 6.34375 -1.640625 L 6.269531 -2.15625 L 6.34375 -5.460938 L 6.246094 -6.882812 L 6.464844 -7.226562 L 6.835938 -7.128906 L 7.445312 -6.367188 L 8.816406 -5.070312 L 9.136719 -4.652344 L 9.945312 -3.992188 L 10.507812 -3.992188 L 10.925781 -4.285156 L 12.980469 -6.367188 L 13.300781 -6.785156 L 13.644531 -7.128906 L 13.9375 -7.175781 L 14.132812 -6.882812 L 14.207031 -6.394531 L 14.132812 -5.929688 L 14.15625 -5.488281 L 14.132812 -4.996094 L 14.207031 -4.089844 L 14.132812 -0.710938 L 14.378906 -0.195312 L 14.917969 0 L 17.855469 0.0234375 L 18.320312 -0.269531 L 18.589844 -0.785156 L 18.664062 -1.273438 L 18.566406 -4.214844 L 18.617188 -4.679688 L 18.566406 -5.632812 L 18.640625 -6.125 L 18.617188 -6.613281 L 18.664062 -7.128906 L 18.617188 -7.617188 L 18.691406 -8.058594 L 18.617188 -14.992188 L 18.664062 -15.503906 L 18.617188 -15.921875 L 18.640625 -16.4375 L 18.371094 -16.902344 L 17.882812 -17.195312 L 17.148438 -16.976562 L 16.535156 -16.632812 L 15.972656 -15.945312 L 14.574219 -14.5 L 14.355469 -14.132812 L 10.730469 -10.289062 L 10.191406 -10.117188 L 9.75 -10.261719 L 9.429688 -10.582031 L 9.136719 -11 L 8.746094 -11.316406 L 8.449219 -11.707031 L 6.761719 -13.449219 L 6.171875 -14.183594 L 5.757812 -14.550781 L 5.4375 -14.894531 L 5.167969 -15.261719 L 4.824219 -15.578125 L 4.554688 -15.921875 L 4.015625 -16.484375 L 3.308594 -17 L 2.597656 -17.195312 L 2.105469 -16.925781 L 1.835938 -16.4375 L 1.789062 -15.921875 L 1.863281 -5.121094 L 1.761719 -4.652344 L 1.863281 -1.175781 Z M 1.8125 -0.710938 "/></g></g></g><g fill="#3f3f3f" fill-opacity="1"><g transform="translate(100.429024, 203.283678)"><g><path d="M 9.160156 0.292969 L 10.53125 0.269531 L 12.003906 0.0742188 L 13.839844 -0.539062 L 14.648438 -0.980469 L 15.015625 -1.273438 L 15.480469 -1.496094 L 16.167969 -2.082031 L 16.484375 -2.523438 L 16.828125 -2.867188 L 17.90625 -4.507812 L 18.273438 -5.4375 L 18.46875 -6.367188 L 18.492188 -6.808594 L 18.617188 -7.300781 L 18.640625 -7.8125 L 18.738281 -8.523438 L 18.664062 -9.75 L 18.492188 -10.753906 L 17.882812 -12.589844 L 17.414062 -13.496094 L 16.878906 -14.230469 L 16.191406 -14.992188 L 15.480469 -15.601562 L 14.917969 -15.996094 L 14.183594 -16.3125 L 13.816406 -16.582031 L 11.929688 -17.171875 L 10.507812 -17.414062 L 9.847656 -17.441406 L 7.25 -17.074219 L 5.414062 -16.386719 L 5.046875 -16.117188 L 4.605469 -15.898438 L 3.773438 -15.285156 L 2.570312 -13.886719 L 1.8125 -12.589844 L 1.445312 -11.660156 L 1.027344 -9.773438 L 0.957031 -7.789062 L 1.027344 -7.273438 L 1.152344 -6.835938 L 1.199219 -6.367188 L 1.421875 -5.4375 L 2.546875 -3.207031 L 2.839844 -2.914062 L 3.160156 -2.523438 L 3.527344 -2.179688 L 3.796875 -1.863281 L 4.605469 -1.226562 L 6.515625 -0.246094 L 7.226562 0 L 7.765625 0.0507812 L 8.648438 0.246094 Z M 10.53125 -4.042969 L 9.1875 -4.042969 L 8.648438 -4.113281 L 7.765625 -4.484375 L 7.371094 -4.703125 L 6.710938 -5.242188 L 6.394531 -5.585938 L 6.050781 -6.050781 L 5.929688 -6.441406 L 5.707031 -6.882812 L 5.511719 -7.789062 L 5.511719 -9.285156 L 5.632812 -9.722656 L 5.707031 -10.191406 L 5.902344 -10.628906 L 6.050781 -11.070312 L 6.636719 -11.855469 L 7.863281 -12.6875 L 8.179688 -12.8125 L 9.136719 -13.054688 L 9.824219 -13.105469 L 11 -12.957031 L 11.4375 -12.859375 L 11.878906 -12.664062 L 12.640625 -12.125 L 13.59375 -11.121094 L 13.886719 -10.191406 L 14.109375 -9.722656 L 14.183594 -9.285156 L 14.132812 -7.789062 L 13.9375 -6.882812 L 13.765625 -6.441406 L 13.496094 -6 L 13.351562 -5.632812 L 13.007812 -5.242188 L 11.832031 -4.433594 L 11.390625 -4.3125 L 11.023438 -4.140625 Z M 10.53125 -4.042969 "/></g></g></g><g fill="#3f3f3f" fill-opacity="1"><g transform="translate(120.071719, 203.283678)"><g><path d="M 6.90625 -0.441406 L 7.300781 0 L 7.886719 0.21875 L 8.378906 0.269531 L 9.039062 -0.0234375 L 9.453125 -0.417969 L 9.601562 -0.882812 L 10.019531 -1.835938 L 10.238281 -2.300781 L 10.484375 -2.71875 L 10.875 -3.601562 L 11.023438 -4.042969 L 12.492188 -7.175781 L 12.785156 -8.132812 L 13.300781 -9.015625 L 13.570312 -9.945312 L 13.839844 -10.433594 L 13.960938 -10.851562 L 14.085938 -11.316406 L 14.425781 -11.757812 L 14.550781 -12.222656 L 14.867188 -12.589844 L 15.234375 -13.546875 L 15.359375 -13.988281 L 15.628906 -14.402344 L 15.800781 -14.894531 L 16.042969 -15.359375 L 16.140625 -15.773438 L 16.386719 -16.363281 L 16.238281 -16.976562 L 15.824219 -17.121094 L 12.933594 -17.121094 L 12.371094 -16.925781 L 11.929688 -16.460938 L 11.804688 -16.019531 L 8.890625 -8.84375 L 8.648438 -8.378906 L 8.523438 -7.9375 L 8.230469 -7.496094 L 7.9375 -7.445312 L 7.742188 -7.886719 L 7.421875 -8.816406 L 7.226562 -9.257812 L 7.078125 -9.75 L 6.90625 -10.140625 L 6.636719 -10.582031 L 6.34375 -11.5625 L 6.125 -11.953125 L 5.953125 -12.394531 L 5.855469 -12.882812 L 4.996094 -14.648438 L 4.921875 -15.113281 L 4.679688 -15.578125 L 4.507812 -16.019531 L 4.285156 -16.410156 L 3.871094 -16.902344 L 3.308594 -17.097656 L 1.933594 -17.171875 L 1.519531 -17.121094 L 1.078125 -17.171875 L 0.5625 -17.148438 L 0.0507812 -16.925781 L 0 -16.386719 L 0.0976562 -15.800781 L 0.320312 -15.359375 L 0.6875 -14.425781 L 0.90625 -13.988281 L 1.054688 -13.546875 L 1.324219 -13.082031 L 1.714844 -12.125 L 1.960938 -11.683594 L 2.695312 -9.894531 L 2.9375 -9.503906 L 4.554688 -5.855469 L 4.679688 -5.4375 L 5.09375 -4.554688 L 5.242188 -4.089844 L 5.878906 -2.671875 L 6.125 -2.300781 L 6.246094 -1.789062 Z M 6.90625 -0.441406 "/></g></g></g><g fill="#3f3f3f" fill-opacity="1"><g transform="translate(136.579419, 203.283678)"><g><path d="M 1.175781 -0.710938 L 1.421875 -0.195312 L 1.910156 -0.0234375 L 9.1875 0.0234375 L 9.652344 -0.21875 L 9.921875 -0.660156 L 9.921875 -1.199219 L 9.871094 -1.640625 L 9.945312 -3.136719 L 9.601562 -3.550781 L 7.960938 -4.066406 L 7.691406 -4.554688 L 7.742188 -6.566406 L 7.640625 -7.542969 L 7.742188 -8.574219 L 7.691406 -9.308594 L 7.742188 -10.066406 L 7.691406 -10.53125 L 7.742188 -11.023438 L 7.691406 -11.539062 L 7.691406 -12.566406 L 7.960938 -13.007812 L 8.425781 -13.277344 L 8.964844 -13.300781 L 9.429688 -13.570312 L 9.699219 -14.035156 L 9.699219 -15.480469 L 9.75 -15.921875 L 9.699219 -16.410156 L 9.503906 -16.902344 L 8.71875 -17.121094 L 5.609375 -17.148438 L 5.070312 -17.097656 L 3.578125 -17.121094 L 3.109375 -17.097656 L 2.15625 -17.148438 L 1.617188 -16.902344 L 1.347656 -16.386719 L 1.347656 -15.921875 L 1.296875 -15.503906 L 1.296875 -14.964844 L 1.347656 -14.476562 L 1.347656 -14.011719 L 1.59375 -13.546875 L 3.085938 -13.03125 L 3.40625 -12.589844 L 3.332031 -10.507812 L 3.355469 -10.09375 L 3.429688 -9.527344 L 3.40625 -8.523438 L 3.355469 -8.035156 L 3.453125 -7.078125 L 3.332031 -6.589844 L 3.429688 -5.535156 L 3.378906 -4.582031 L 3.136719 -4.042969 L 1.519531 -3.527344 L 1.226562 -3.0625 L 1.175781 -2.597656 Z M 1.175781 -0.710938 "/></g></g></g><g fill="#3f3f3f" fill-opacity="1"><g transform="translate(147.698853, 203.283678)"><g><path d="M 14.453125 -0.390625 L 15.164062 -0.0742188 L 15.800781 0.121094 L 16.363281 -0.148438 L 16.582031 -0.660156 L 16.707031 -7.324219 L 16.609375 -8.011719 L 16.65625 -8.546875 L 16.558594 -11.488281 L 16.632812 -12.46875 L 16.582031 -12.933594 L 16.582031 -13.914062 L 16.679688 -14.402344 L 16.632812 -15.136719 L 16.679688 -16.410156 L 16.386719 -16.851562 L 15.847656 -17.097656 L 15.359375 -17.148438 L 14.894531 -17.148438 L 14.355469 -17.097656 L 13.839844 -17.171875 L 13.398438 -17.121094 L 12.910156 -17.148438 L 12.320312 -16.902344 L 12.074219 -16.386719 L 12.050781 -11.929688 L 12.148438 -11.414062 L 12.148438 -10.949219 L 12.050781 -10.433594 L 12.074219 -9.453125 L 11.953125 -9.0625 L 11.609375 -9.160156 L 10.53125 -10.261719 L 10.164062 -10.558594 L 9.308594 -11.4375 L 8.917969 -11.734375 L 8.648438 -12.074219 L 8.132812 -12.613281 L 7.371094 -13.25 L 7.105469 -13.621094 L 6.636719 -13.9375 L 6.394531 -14.304688 L 5.976562 -14.597656 L 5.660156 -15.015625 L 4.335938 -16.363281 L 3.355469 -17.023438 L 2.695312 -17.21875 L 2.105469 -16.925781 L 1.789062 -16.460938 L 1.835938 -13.03125 L 1.789062 -12.542969 L 1.863281 -11.539062 L 1.8125 -11.097656 L 1.835938 -10.582031 L 1.761719 -10.066406 L 1.863281 -6.566406 L 1.8125 -6.125 L 1.8125 -5.660156 L 1.761719 -5.121094 L 1.761719 -4.652344 L 1.835938 -4.140625 L 1.8125 -3.136719 L 1.863281 -2.644531 L 1.789062 -1.714844 L 1.863281 -1.226562 L 1.863281 -0.757812 L 2.082031 -0.21875 L 2.546875 0.0507812 L 3.378906 0 L 4.605469 0.0742188 L 5.121094 0 L 5.683594 0.0507812 L 6.171875 -0.195312 L 6.394531 -0.6875 L 6.320312 -1.175781 L 6.394531 -7.175781 L 6.296875 -7.691406 L 6.539062 -7.984375 L 6.859375 -7.910156 L 10.363281 -4.484375 L 10.753906 -4.164062 L 13.128906 -1.789062 L 13.449219 -1.394531 L 13.839844 -1.078125 L 14.132812 -0.710938 Z M 14.453125 -0.390625 "/></g></g></g><g fill="#3f3f3f" fill-opacity="1"><g transform="translate(166.165931, 203.283678)"><g><path d="M 8.964844 0.292969 L 9.601562 0.320312 L 10.925781 0.195312 L 11.414062 0.0976562 L 11.878906 0.0742188 L 12.296875 -0.0507812 L 14.109375 -0.832031 L 14.453125 -1.125 L 15.261719 -1.640625 L 15.972656 -2.402344 L 16.753906 -3.550781 L 17.316406 -4.679688 L 17.636719 -5.730469 L 17.660156 -6.195312 L 17.808594 -6.6875 L 17.90625 -8.546875 L 17.832031 -9.039062 L 17.539062 -9.527344 L 16.828125 -9.75 L 10.679688 -9.75 L 9.921875 -9.480469 L 9.699219 -9.015625 L 9.652344 -7.175781 L 9.75 -6.710938 L 9.894531 -6.296875 L 10.363281 -6.074219 L 10.828125 -6.074219 L 11.269531 -6.027344 L 12.738281 -6.097656 L 13.082031 -5.828125 L 13.179688 -5.414062 L 12.980469 -5.019531 L 12.273438 -4.335938 L 11.878906 -4.140625 L 10.949219 -3.847656 L 10.460938 -3.773438 L 9.75 -3.746094 L 8.988281 -3.796875 L 8.546875 -3.894531 L 8.109375 -4.066406 L 7.226562 -4.53125 L 6.492188 -5.121094 L 6.222656 -5.535156 L 6.027344 -5.953125 L 5.757812 -6.394531 L 5.585938 -6.859375 L 5.4375 -9.308594 L 5.707031 -10.191406 L 5.804688 -10.679688 L 6.171875 -11.585938 L 6.808594 -12.273438 L 7.617188 -12.835938 L 8.035156 -13.03125 L 8.988281 -13.351562 L 9.675781 -13.375 L 10.949219 -13.226562 L 11.414062 -13.105469 L 12.640625 -12.34375 L 12.882812 -11.953125 L 13.421875 -11.5625 L 13.960938 -11.316406 L 16.363281 -11.316406 L 16.828125 -11.367188 L 17.246094 -11.511719 L 17.414062 -12.050781 L 16.632812 -13.863281 L 16.289062 -14.207031 L 15.675781 -14.992188 L 14.964844 -15.703125 L 13.300781 -16.730469 L 12.761719 -16.878906 L 12.371094 -17.046875 L 11.878906 -17.121094 L 11.339844 -17.269531 L 8.917969 -17.390625 L 7.421875 -17.148438 L 5.558594 -16.484375 L 5.121094 -16.265625 L 3.894531 -15.433594 L 3.160156 -14.746094 L 2.839844 -14.328125 L 2.597656 -13.9375 L 2.230469 -13.59375 L 1.960938 -13.128906 L 1.199219 -11.269531 L 1.175781 -10.828125 L 0.90625 -9.75 L 0.957031 -8.523438 L 0.90625 -7.839844 L 0.929688 -7.324219 L 1.347656 -5.4375 L 1.863281 -4.089844 L 2.132812 -3.625 L 3.011719 -2.523438 L 3.699219 -1.8125 L 5.265625 -0.757812 L 5.707031 -0.539062 L 7.078125 -0.0507812 L 8.449219 0.246094 Z M 8.964844 0.292969 "/></g></g></g><g fill="#3f3f3f" fill-opacity="1"><g transform="translate(131.497459, 184.397315)"><g><path d="M 1.023438 -0.421875 L 1.1875 -0.121094 L 1.40625 0 L 1.722656 0 L 2.007812 0.0390625 L 2.28125 0.0390625 L 2.570312 0 L 5.03125 -0.0117188 L 5.90625 -0.136719 L 6.695312 -0.382812 L 7.859375 -1.160156 L 8.40625 -1.789062 L 8.828125 -2.472656 L 8.898438 -2.734375 L 9.035156 -2.992188 L 9.089844 -3.265625 L 9.183594 -3.511719 L 9.226562 -3.800781 L 9.292969 -4.085938 L 9.28125 -4.320312 L 9.335938 -5.195312 L 9.128906 -5.972656 L 9.101562 -6.261719 L 9.035156 -6.507812 L 8.828125 -7.050781 L 8.515625 -7.515625 L 8.40625 -7.75 L 8.050781 -8.171875 L 7.816406 -8.351562 L 7.433594 -8.71875 L 6.929688 -9.035156 L 6.65625 -9.171875 L 5.90625 -9.417969 L 5.34375 -9.527344 L 3.402344 -9.539062 L 3.128906 -9.566406 L 2.253906 -9.539062 L 1.980469 -9.566406 L 1.734375 -9.554688 L 1.449219 -9.566406 L 1.203125 -9.417969 L 0.996094 -9.15625 L 0.996094 -8.597656 L 1.023438 -8.324219 L 1.011719 -8.050781 L 1.039062 -7.53125 L 0.996094 -7.230469 L 1.039062 -6.957031 L 0.996094 -6.683594 L 1.050781 -5.589844 L 1.011719 -5.070312 L 1.050781 -4.484375 L 1.011719 -4.222656 L 1.050781 -3.9375 L 1.011719 -3.402344 L 1.039062 -2.308594 L 1.011719 -2.035156 L 1.050781 -0.941406 Z M 3.921875 -2.199219 L 3.59375 -2.324219 L 3.472656 -2.625 L 3.5 -2.898438 L 3.445312 -3.144531 L 3.484375 -3.417969 L 3.484375 -6.929688 L 3.648438 -7.175781 L 4.046875 -7.324219 L 4.332031 -7.3125 L 4.621094 -7.324219 L 5.03125 -7.296875 L 5.578125 -7.132812 L 6.042969 -6.832031 L 6.382812 -6.453125 L 6.535156 -6.191406 L 6.710938 -5.972656 L 6.875 -5.167969 L 6.914062 -4.742188 L 6.847656 -4.074219 L 6.765625 -3.8125 L 6.5625 -3.320312 L 6.382812 -3.074219 L 6.207031 -2.882812 L 6.042969 -2.664062 L 5.824219 -2.527344 L 5.550781 -2.390625 L 5.058594 -2.253906 Z M 3.921875 -2.199219 "/></g></g></g><g fill="#3f3f3f" fill-opacity="1"><g transform="translate(141.433242, 184.397315)"><g><path d="M 0.65625 -0.394531 L 0.792969 -0.109375 L 1.066406 -0.0117188 L 5.125 0.0117188 L 5.386719 -0.121094 L 5.535156 -0.367188 L 5.535156 -0.667969 L 5.507812 -0.914062 L 5.550781 -1.75 L 5.359375 -1.980469 L 4.441406 -2.269531 L 4.292969 -2.542969 L 4.320312 -3.664062 L 4.265625 -4.210938 L 4.320312 -4.785156 L 4.292969 -5.195312 L 4.320312 -5.617188 L 4.292969 -5.878906 L 4.320312 -6.152344 L 4.292969 -6.4375 L 4.292969 -7.011719 L 4.441406 -7.257812 L 4.703125 -7.40625 L 5.003906 -7.421875 L 5.261719 -7.570312 L 5.414062 -7.832031 L 5.414062 -8.636719 L 5.441406 -8.882812 L 5.414062 -9.15625 L 5.304688 -9.429688 L 4.867188 -9.554688 L 3.128906 -9.566406 L 2.828125 -9.539062 L 1.996094 -9.554688 L 1.734375 -9.539062 L 1.203125 -9.566406 L 0.902344 -9.429688 L 0.75 -9.144531 L 0.75 -8.882812 L 0.722656 -8.652344 L 0.722656 -8.351562 L 0.75 -8.078125 L 0.75 -7.816406 L 0.886719 -7.558594 L 1.722656 -7.269531 L 1.898438 -7.023438 L 1.859375 -5.863281 L 1.871094 -5.632812 L 1.914062 -5.316406 L 1.898438 -4.757812 L 1.871094 -4.484375 L 1.925781 -3.949219 L 1.859375 -3.675781 L 1.914062 -3.089844 L 1.886719 -2.554688 L 1.75 -2.253906 L 0.847656 -1.96875 L 0.683594 -1.707031 L 0.65625 -1.449219 Z M 0.65625 -0.394531 "/></g></g></g><g fill="#3f3f3f" fill-opacity="1"><g transform="translate(147.637984, 184.397315)"><g><path d="M 5.113281 0.164062 L 5.878906 0.148438 L 6.695312 0.0390625 L 7.722656 -0.300781 L 8.171875 -0.546875 L 8.378906 -0.710938 L 8.636719 -0.832031 L 9.019531 -1.160156 L 9.199219 -1.40625 L 9.390625 -1.597656 L 9.992188 -2.515625 L 10.195312 -3.035156 L 10.304688 -3.554688 L 10.320312 -3.800781 L 10.386719 -4.074219 L 10.402344 -4.359375 L 10.457031 -4.757812 L 10.414062 -5.441406 L 10.320312 -6 L 9.976562 -7.023438 L 9.71875 -7.53125 L 9.417969 -7.941406 L 9.035156 -8.363281 L 8.636719 -8.707031 L 8.324219 -8.925781 L 7.914062 -9.101562 L 7.707031 -9.253906 L 6.65625 -9.582031 L 5.863281 -9.71875 L 5.496094 -9.730469 L 4.046875 -9.527344 L 3.019531 -9.144531 L 2.816406 -8.992188 L 2.570312 -8.871094 L 2.105469 -8.527344 L 1.433594 -7.75 L 1.011719 -7.023438 L 0.804688 -6.507812 L 0.574219 -5.453125 L 0.53125 -4.347656 L 0.574219 -4.058594 L 0.640625 -3.8125 L 0.667969 -3.554688 L 0.792969 -3.035156 L 1.421875 -1.789062 L 1.585938 -1.625 L 1.761719 -1.40625 L 1.96875 -1.214844 L 2.117188 -1.039062 L 2.570312 -0.683594 L 3.636719 -0.136719 L 4.03125 0 L 4.332031 0.0273438 L 4.824219 0.136719 Z M 5.878906 -2.253906 L 5.125 -2.253906 L 4.824219 -2.296875 L 4.332031 -2.5 L 4.113281 -2.625 L 3.746094 -2.925781 L 3.566406 -3.117188 L 3.375 -3.375 L 3.308594 -3.59375 L 3.183594 -3.839844 L 3.074219 -4.347656 L 3.074219 -5.179688 L 3.144531 -5.425781 L 3.183594 -5.6875 L 3.292969 -5.933594 L 3.375 -6.179688 L 3.703125 -6.613281 L 4.386719 -7.078125 L 4.566406 -7.148438 L 5.097656 -7.285156 L 5.480469 -7.3125 L 6.136719 -7.230469 L 6.382812 -7.175781 L 6.628906 -7.066406 L 7.050781 -6.765625 L 7.585938 -6.207031 L 7.75 -5.6875 L 7.871094 -5.425781 L 7.914062 -5.179688 L 7.886719 -4.347656 L 7.777344 -3.839844 L 7.679688 -3.59375 L 7.53125 -3.347656 L 7.449219 -3.144531 L 7.257812 -2.925781 L 6.601562 -2.472656 L 6.355469 -2.40625 L 6.152344 -2.308594 Z M 5.878906 -2.253906 "/></g></g></g><g fill="#3f3f3f" fill-opacity="1"><g transform="translate(158.598781, 184.397315)"><g><path d="M 4.03125 0.109375 L 4.6875 0.164062 L 5.371094 0.136719 L 5.917969 0.0117188 L 6.207031 -0.09375 L 6.480469 -0.164062 L 6.695312 -0.300781 L 6.941406 -0.410156 L 7.160156 -0.558594 L 7.777344 -1.105469 L 7.925781 -1.351562 L 8.105469 -1.558594 L 8.1875 -1.832031 L 8.324219 -2.0625 L 8.417969 -2.324219 L 8.515625 -3.703125 L 8.472656 -4.8125 L 8.527344 -5.097656 L 8.527344 -5.34375 L 8.472656 -5.617188 L 8.460938 -5.878906 L 8.488281 -6.164062 L 8.472656 -6.546875 L 8.5 -6.96875 L 8.488281 -7.269531 L 8.527344 -7.53125 L 8.488281 -7.804688 L 8.5 -8.910156 L 8.460938 -9.144531 L 8.351562 -9.445312 L 7.914062 -9.566406 L 6.628906 -9.582031 L 6.328125 -9.457031 L 6.191406 -9.15625 L 6.207031 -7.816406 L 6.179688 -7.542969 L 6.191406 -7.011719 L 6.164062 -6.722656 L 6.207031 -6.4375 L 6.164062 -5.359375 L 6.21875 -5.113281 L 6.191406 -4.8125 L 6.207031 -4.320312 L 6.179688 -4.046875 L 6.191406 -3.347656 L 6.136719 -2.910156 L 6.015625 -2.652344 L 5.890625 -2.460938 L 5.671875 -2.253906 L 5.125 -2.078125 L 4.757812 -2.050781 L 4.304688 -2.078125 L 4.058594 -2.144531 L 3.757812 -2.296875 L 3.554688 -2.472656 L 3.390625 -2.664062 L 3.308594 -2.953125 L 3.28125 -5.359375 L 3.238281 -5.632812 L 3.226562 -6.480469 L 3.253906 -6.722656 L 3.253906 -7.816406 L 3.210938 -8.214844 L 3.210938 -8.472656 L 3.28125 -8.882812 L 3.28125 -9.171875 L 3.128906 -9.429688 L 2.800781 -9.554688 L 1.367188 -9.566406 L 1.09375 -9.417969 L 0.96875 -9.144531 L 0.96875 -8.324219 L 0.902344 -8.089844 L 0.957031 -7.515625 L 0.914062 -6.996094 L 0.984375 -6.179688 L 0.929688 -5.917969 L 0.96875 -5.617188 L 0.941406 -5.359375 L 0.957031 -5.085938 L 0.929688 -4.824219 L 0.96875 -4.277344 L 0.957031 -3.292969 L 0.996094 -2.898438 L 0.996094 -2.609375 L 1.078125 -2.335938 L 1.121094 -2.078125 L 1.203125 -1.816406 L 1.476562 -1.351562 L 1.84375 -0.902344 L 2.023438 -0.722656 L 2.488281 -0.449219 L 2.691406 -0.285156 L 2.953125 -0.175781 L 3.265625 -0.0820312 L 3.472656 0.0273438 L 3.773438 0.0390625 Z M 4.03125 0.109375 "/></g></g></g><g fill="#3f3f3f" fill-opacity="1"><g transform="translate(168.02889, 184.397315)"><g><path d="M 0.996094 -0.382812 L 1.132812 -0.121094 L 1.558594 0.0273438 L 3.0625 0.0117188 L 3.335938 -0.121094 L 3.511719 -0.546875 L 3.5 -0.96875 L 3.527344 -1.257812 L 3.484375 -1.84375 L 3.5 -2.105469 L 3.484375 -2.363281 L 3.511719 -2.652344 L 3.636719 -2.9375 L 4.046875 -3.074219 L 6.179688 -3.089844 L 6.4375 -3.210938 L 6.589844 -3.484375 L 6.574219 -3.785156 L 6.601562 -4.605469 L 6.5625 -4.867188 L 6.425781 -5.152344 L 6.015625 -5.289062 L 3.9375 -5.289062 L 3.621094 -5.398438 L 3.472656 -5.644531 L 3.472656 -6.453125 L 3.511719 -6.738281 L 3.5 -6.96875 L 3.636719 -7.242188 L 4.03125 -7.378906 L 4.429688 -7.367188 L 4.824219 -7.394531 L 5.496094 -7.351562 L 5.769531 -7.378906 L 6.328125 -7.351562 L 6.601562 -7.394531 L 6.859375 -7.515625 L 6.957031 -7.789062 L 6.957031 -8.050781 L 6.984375 -8.324219 L 6.957031 -8.582031 L 6.984375 -8.871094 L 6.957031 -9.15625 L 6.820312 -9.417969 L 6.574219 -9.539062 L 6.246094 -9.582031 L 5.753906 -9.539062 L 5.46875 -9.554688 L 5.179688 -9.539062 L 4.921875 -9.566406 L 4.660156 -9.539062 L 1.394531 -9.539062 L 1.132812 -9.402344 L 0.984375 -9.144531 L 1.039062 -7.503906 L 1.011719 -7.242188 L 0.996094 -5.304688 L 1.039062 -5.058594 L 1.011719 -4.796875 L 1.011719 -4.523438 L 0.984375 -4.222656 L 1.039062 -3.800781 L 0.996094 -0.96875 L 1.023438 -0.65625 Z M 0.996094 -0.382812 "/></g></g></g><g fill="#3f3f3f" fill-opacity="1"><g transform="translate(175.477312, 184.397315)"><g><path d="M 3.144531 -0.382812 L 3.292969 -0.148438 L 3.554688 -0.0117188 L 4.046875 0.0117188 L 4.320312 -0.0117188 L 4.605469 0 L 4.988281 -0.0117188 L 5.398438 -0.148438 L 5.535156 -0.421875 L 5.535156 -0.65625 L 5.507812 -0.941406 L 5.523438 -1.203125 L 5.507812 -1.449219 L 5.578125 -2.28125 L 5.535156 -2.570312 L 5.578125 -3.363281 L 5.523438 -3.609375 L 5.589844 -4.003906 L 6.070312 -4.839844 L 6.179688 -5.097656 L 6.328125 -5.332031 L 6.667969 -5.78125 L 8.242188 -8.378906 L 8.40625 -8.582031 L 8.5 -8.828125 L 8.691406 -9.15625 L 8.652344 -9.484375 L 8.390625 -9.59375 L 8.117188 -9.554688 L 7.585938 -9.59375 L 7.296875 -9.554688 L 6.777344 -9.554688 L 6.519531 -9.582031 L 6.179688 -9.445312 L 5.890625 -9.183594 L 5.660156 -8.71875 L 5.480469 -8.460938 L 5.398438 -8.199219 L 5.085938 -7.75 L 4.878906 -7.257812 L 4.429688 -6.519531 L 4.238281 -6.492188 L 3.921875 -6.984375 L 3.800781 -7.230469 L 3.71875 -7.503906 L 3.035156 -8.707031 L 2.882812 -8.9375 L 2.773438 -9.210938 L 2.472656 -9.429688 L 2.132812 -9.582031 L 0.328125 -9.554688 L 0.0273438 -9.472656 L 0 -9.171875 L 0.136719 -8.84375 L 1.613281 -6.507812 L 1.722656 -6.273438 L 2.9375 -4.359375 L 3.046875 -4.003906 L 3.117188 -3.609375 L 3.101562 -2.527344 L 3.128906 -2.253906 L 3.144531 -1.996094 L 3.117188 -1.75 L 3.101562 -1.230469 L 3.171875 -0.667969 Z M 3.144531 -0.382812 "/></g></g></g></svg>