<svg xmlns="http://www.w3.org/2000/svg" xmlns:xlink="http://www.w3.org/1999/xlink" width="500" zoomAndPan="magnify" viewBox="0 0 375 374.999991" height="100" preserveAspectRatio="xMidYMid meet" version="1.0"><defs><g/><clipPath id="23270ef54b"><path d="M 190.429688 168 L 238 168 L 238 195 L 190.429688 195 Z M 190.429688 168 " clip-rule="nonzero"/></clipPath><clipPath id="54bc2c7903"><path d="M 190.429688 163.148438 L 287.929688 163.148438 L 287.929688 211.898438 L 190.429688 211.898438 Z M 190.429688 163.148438 " clip-rule="nonzero"/></clipPath></defs><g clip-path="url(#23270ef54b)"><path fill="#dcdcdc" d="M 237.058594 168.976562 L 190.429688 168.976562 L 190.429688 171.097656 L 234.941406 171.097656 L 234.941406 192.292969 L 190.429688 192.292969 L 190.429688 194.410156 L 237.058594 194.410156 Z M 237.058594 168.976562 " fill-opacity="1" fill-rule="nonzero"/></g><path fill="#dcdcdc" d="M 251.898438 175.335938 L 256.136719 175.335938 L 256.136719 177.453125 L 251.898438 177.453125 Z M 251.898438 175.335938 " fill-opacity="1" fill-rule="nonzero"/><path fill="#dcdcdc" d="M 247.65625 175.335938 L 249.777344 175.335938 L 249.777344 177.453125 L 247.65625 177.453125 Z M 247.65625 175.335938 " fill-opacity="1" fill-rule="nonzero"/><g clip-path="url(#54bc2c7903)"><path fill="#dcdcdc" d="M 285.808594 190.171875 L 270.972656 185.933594 L 268.855469 179.574219 L 266.734375 179.574219 L 258.253906 171.097656 L 243.417969 171.097656 L 243.417969 196.53125 L 241.300781 196.53125 L 241.300781 168.976562 C 241.300781 167.144531 240.191406 163.675781 236 163.675781 L 236 165.796875 C 238.992188 165.796875 239.171875 168.449219 239.179688 168.976562 L 239.179688 196.53125 L 232.820312 196.53125 L 232.820312 202.890625 L 228.472656 202.890625 C 227.957031 199.296875 224.894531 196.53125 221.164062 196.53125 C 217.429688 196.53125 214.371094 199.296875 213.851562 202.890625 L 211.515625 202.890625 C 211 199.296875 207.9375 196.53125 204.207031 196.53125 C 200.472656 196.53125 197.414062 199.296875 196.894531 202.890625 L 190.429688 202.890625 L 190.429688 205.007812 L 196.894531 205.007812 C 197.414062 208.597656 200.472656 211.367188 204.207031 211.367188 C 207.941406 211.367188 211 208.597656 211.515625 205.007812 L 213.851562 205.007812 C 214.371094 208.597656 217.429688 211.367188 221.164062 211.367188 C 224.894531 211.367188 227.957031 208.597656 228.472656 205.007812 L 232.820312 205.007812 L 232.820312 207.128906 L 256.136719 207.128906 L 256.136719 205.007812 L 264.722656 205.007812 C 265.238281 208.597656 268.300781 211.367188 272.03125 211.367188 C 275.765625 211.367188 278.824219 208.597656 279.34375 205.007812 L 287.929688 205.007812 L 287.929688 198.648438 L 285.808594 198.648438 Z M 204.207031 209.246094 C 201.285156 209.246094 198.90625 206.871094 198.90625 203.949219 C 198.90625 201.027344 201.285156 198.648438 204.207031 198.648438 C 207.128906 198.648438 209.503906 201.027344 209.503906 203.949219 C 209.503906 206.871094 207.128906 209.246094 204.207031 209.246094 Z M 221.164062 209.246094 C 218.242188 209.246094 215.863281 206.871094 215.863281 203.949219 C 215.863281 201.027344 218.242188 198.648438 221.164062 198.648438 C 224.085938 198.648438 226.460938 201.027344 226.460938 203.949219 C 226.460938 206.871094 224.085938 209.246094 221.164062 209.246094 Z M 267.324219 181.695312 L 268.738281 185.933594 L 258.253906 185.933594 L 258.253906 181.695312 Z M 249.777344 205.007812 L 234.941406 205.007812 L 234.941406 198.648438 L 249.777344 198.648438 Z M 254.015625 205.007812 L 251.898438 205.007812 L 251.898438 198.648438 L 254.015625 198.648438 Z M 272.03125 209.246094 C 269.109375 209.246094 266.734375 206.871094 266.734375 203.949219 C 266.734375 201.027344 269.109375 198.648438 272.03125 198.648438 C 274.957031 198.648438 277.332031 201.027344 277.332031 203.949219 C 277.332031 206.871094 274.957031 209.246094 272.03125 209.246094 Z M 283.691406 202.890625 L 279.34375 202.890625 C 278.824219 199.296875 275.765625 196.53125 272.03125 196.53125 C 268.300781 196.53125 265.238281 199.296875 264.722656 202.890625 L 256.136719 202.890625 L 256.136719 196.53125 L 245.539062 196.53125 L 245.539062 173.214844 L 257.378906 173.214844 L 263.738281 179.574219 L 256.136719 179.574219 L 256.136719 188.050781 L 270.675781 188.050781 L 283.691406 191.769531 Z M 283.691406 202.890625 " fill-opacity="1" fill-rule="nonzero"/></g><path fill="#dcdcdc" d="M 198.90625 173.214844 L 201.027344 173.214844 L 201.027344 175.335938 L 198.90625 175.335938 Z M 198.90625 173.214844 " fill-opacity="1" fill-rule="nonzero"/><path fill="#dcdcdc" d="M 203.148438 173.214844 L 232.820312 173.214844 L 232.820312 175.335938 L 203.148438 175.335938 Z M 203.148438 173.214844 " fill-opacity="1" fill-rule="nonzero"/><path fill="#dcdcdc" d="M 207.386719 203.949219 C 207.386719 204.371094 207.304688 204.777344 207.144531 205.164062 C 206.984375 205.554688 206.753906 205.898438 206.453125 206.195312 C 206.15625 206.496094 205.8125 206.726562 205.421875 206.886719 C 205.035156 207.046875 204.628906 207.128906 204.207031 207.128906 C 203.785156 207.128906 203.378906 207.046875 202.988281 206.886719 C 202.601562 206.726562 202.257812 206.496094 201.957031 206.195312 C 201.660156 205.898438 201.429688 205.554688 201.269531 205.164062 C 201.109375 204.777344 201.027344 204.371094 201.027344 203.949219 C 201.027344 203.527344 201.109375 203.121094 201.269531 202.730469 C 201.429688 202.34375 201.660156 202 201.957031 201.699219 C 202.257812 201.402344 202.601562 201.171875 202.988281 201.011719 C 203.378906 200.851562 203.785156 200.769531 204.207031 200.769531 C 204.628906 200.769531 205.035156 200.851562 205.421875 201.011719 C 205.8125 201.171875 206.15625 201.402344 206.453125 201.699219 C 206.753906 202 206.984375 202.34375 207.144531 202.730469 C 207.304688 203.121094 207.386719 203.527344 207.386719 203.949219 Z M 207.386719 203.949219 " fill-opacity="1" fill-rule="nonzero"/><path fill="#dcdcdc" d="M 224.34375 203.949219 C 224.34375 204.371094 224.261719 204.777344 224.101562 205.164062 C 223.9375 205.554688 223.710938 205.898438 223.410156 206.195312 C 223.113281 206.496094 222.769531 206.726562 222.378906 206.886719 C 221.992188 207.046875 221.585938 207.128906 221.164062 207.128906 C 220.742188 207.128906 220.335938 207.046875 219.945312 206.886719 C 219.558594 206.726562 219.214844 206.496094 218.914062 206.195312 C 218.617188 205.898438 218.386719 205.554688 218.226562 205.164062 C 218.066406 204.777344 217.984375 204.371094 217.984375 203.949219 C 217.984375 203.527344 218.066406 203.121094 218.226562 202.730469 C 218.386719 202.34375 218.617188 202 218.914062 201.699219 C 219.214844 201.402344 219.558594 201.171875 219.945312 201.011719 C 220.335938 200.851562 220.742188 200.769531 221.164062 200.769531 C 221.585938 200.769531 221.992188 200.851562 222.378906 201.011719 C 222.769531 201.171875 223.113281 201.402344 223.410156 201.699219 C 223.710938 202 223.9375 202.34375 224.101562 202.730469 C 224.261719 203.121094 224.34375 203.527344 224.34375 203.949219 Z M 224.34375 203.949219 " fill-opacity="1" fill-rule="nonzero"/><path fill="#dcdcdc" d="M 275.210938 203.949219 C 275.210938 204.371094 275.132812 204.777344 274.96875 205.164062 C 274.808594 205.554688 274.578125 205.898438 274.28125 206.195312 C 273.984375 206.496094 273.640625 206.726562 273.25 206.886719 C 272.859375 207.046875 272.453125 207.128906 272.03125 207.128906 C 271.609375 207.128906 271.207031 207.046875 270.816406 206.886719 C 270.425781 206.726562 270.082031 206.496094 269.785156 206.195312 C 269.488281 205.898438 269.257812 205.554688 269.09375 205.164062 C 268.933594 204.777344 268.855469 204.371094 268.855469 203.949219 C 268.855469 203.527344 268.933594 203.121094 269.09375 202.730469 C 269.257812 202.34375 269.488281 202 269.785156 201.699219 C 270.082031 201.402344 270.425781 201.171875 270.816406 201.011719 C 271.207031 200.851562 271.609375 200.769531 272.03125 200.769531 C 272.453125 200.769531 272.859375 200.851562 273.25 201.011719 C 273.640625 201.171875 273.984375 201.402344 274.28125 201.699219 C 274.578125 202 274.808594 202.34375 274.96875 202.730469 C 275.132812 203.121094 275.210938 203.527344 275.210938 203.949219 Z M 275.210938 203.949219 " fill-opacity="1" fill-rule="nonzero"/><g fill="#dcdcdc" fill-opacity="1"><g transform="translate(73.320776, 203.283649)"><g/></g></g><g fill="#dcdcdc" fill-opacity="1"><g transform="translate(79.953588, 203.283649)"><g><path d="M 2.546875 0.0742188 L 3.039062 0 L 3.992188 0.0507812 L 4.53125 -0.0234375 L 5.316406 0.0234375 L 6 -0.269531 L 6.296875 -0.710938 L 6.222656 -3.28125 L 6.296875 -4.042969 L 6.269531 -4.554688 L 6.320312 -5.4375 L 6.269531 -5.976562 L 6.269531 -6.933594 L 6.492188 -7.152344 L 6.734375 -7.054688 L 7.128906 -6.734375 L 7.421875 -6.367188 L 8.425781 -5.363281 L 8.746094 -4.972656 L 9.40625 -4.335938 L 9.921875 -3.96875 L 10.460938 -3.945312 L 10.949219 -4.3125 L 11.292969 -4.679688 L 11.585938 -4.972656 L 12.273438 -5.78125 L 12.613281 -6.027344 L 13.621094 -7.054688 L 13.9375 -7.203125 L 14.132812 -6.835938 L 14.085938 -5.488281 L 14.15625 -4.507812 L 14.109375 -3.550781 L 14.15625 -2.644531 L 14.109375 -2.203125 L 14.15625 -1.101562 L 14.15625 -0.734375 L 14.355469 -0.171875 L 14.867188 -0.0234375 L 17.832031 0.0742188 L 18.347656 -0.195312 L 18.640625 -0.90625 L 18.566406 -2.179688 L 18.617188 -2.671875 L 18.566406 -10.019531 L 18.617188 -10.558594 L 18.589844 -12.980469 L 18.617188 -13.449219 L 18.566406 -14.5 L 18.589844 -14.917969 L 18.566406 -15.921875 L 18.617188 -16.386719 L 18.320312 -16.902344 L 17.808594 -17.171875 L 17.097656 -16.949219 L 16.582031 -16.632812 L 15.554688 -15.554688 L 15.234375 -15.164062 L 14.941406 -14.894531 L 14.597656 -14.453125 L 12.445312 -12.246094 L 12.125 -11.832031 L 10.628906 -10.3125 L 10.191406 -10.019531 L 9.675781 -10.214844 L 9.382812 -10.628906 L 9.039062 -10.972656 L 8.597656 -11.539062 L 8.058594 -12.027344 L 5.828125 -14.5 L 5.488281 -14.796875 L 4.851562 -15.554688 L 4.457031 -15.898438 L 3.820312 -16.558594 L 3.257812 -16.976562 L 2.570312 -17.171875 L 2.03125 -16.925781 L 1.761719 -16.410156 L 1.835938 -14.917969 L 1.761719 -13.960938 L 1.8125 -13.519531 L 1.789062 -9.601562 L 1.835938 -9.113281 L 1.761719 -6.636719 L 1.8125 -6.171875 L 1.789062 -0.757812 L 2.058594 -0.246094 Z M 2.546875 0.0742188 "/></g></g></g><g fill="#dcdcdc" fill-opacity="1"><g transform="translate(100.429024, 203.283649)"><g><path d="M 9.824219 0.320312 L 12.003906 0.0976562 L 12.933594 -0.195312 L 15.113281 -1.175781 L 16.828125 -2.816406 L 17.148438 -3.257812 L 18.101562 -4.949219 L 18.273438 -5.414062 L 18.347656 -5.902344 L 18.492188 -6.296875 L 18.589844 -6.835938 L 18.714844 -8.546875 L 18.589844 -10.238281 L 18.394531 -11.144531 L 18.199219 -11.660156 L 18.078125 -12.222656 L 17.636719 -13.03125 L 17.464844 -13.472656 L 17.148438 -13.886719 L 16.851562 -14.183594 L 16.535156 -14.625 L 15.480469 -15.578125 L 14.230469 -16.363281 L 11.023438 -17.367188 L 9.871094 -17.390625 L 8.15625 -17.292969 L 7.667969 -17.195312 L 7.175781 -17.046875 L 6.734375 -16.851562 L 5.804688 -16.609375 L 4.554688 -15.824219 L 4.214844 -15.53125 L 3.429688 -14.992188 L 2.769531 -14.257812 L 1.933594 -13.03125 L 1.714844 -12.613281 L 1.25 -11.269531 L 1.054688 -10.214844 L 0.957031 -7.371094 L 1.226562 -5.828125 L 1.59375 -4.996094 L 1.738281 -4.484375 L 1.984375 -4.042969 L 3.136719 -2.472656 L 3.820312 -1.8125 L 4.140625 -1.445312 L 5.804688 -0.5625 L 6.269531 -0.367188 L 8.351562 0.246094 Z M 9.136719 -3.992188 L 8.648438 -4.164062 L 8.207031 -4.214844 L 7.371094 -4.652344 L 6.613281 -5.316406 L 6.367188 -5.660156 L 6.050781 -6 L 5.585938 -7.371094 L 5.460938 -8.597656 L 5.488281 -9.332031 L 5.660156 -10.238281 L 5.804688 -10.679688 L 6.097656 -11.023438 L 6.320312 -11.4375 L 6.636719 -11.832031 L 7.003906 -12.148438 L 7.714844 -12.640625 L 8.15625 -12.859375 L 8.671875 -12.980469 L 9.796875 -13.082031 L 10.972656 -13.007812 L 12.273438 -12.445312 L 13.03125 -11.878906 L 13.59375 -11.046875 L 13.789062 -10.605469 L 13.9375 -10.117188 L 14.109375 -9.675781 L 14.207031 -8.621094 L 14.058594 -7.398438 L 13.839844 -6.394531 L 13.570312 -6.027344 L 13.351562 -5.660156 L 13.054688 -5.21875 L 12.296875 -4.628906 L 11.855469 -4.433594 L 11.464844 -4.214844 L 11.023438 -4.164062 L 10.558594 -4.042969 Z M 9.136719 -3.992188 "/></g></g></g><g fill="#dcdcdc" fill-opacity="1"><g transform="translate(120.071719, 203.283649)"><g><path d="M 8.425781 0.21875 L 9.015625 0.0234375 L 9.554688 -0.6875 L 9.871094 -1.371094 L 10.019531 -1.886719 L 10.484375 -2.671875 L 10.628906 -3.160156 L 10.875 -3.675781 L 11.023438 -4.089844 L 11.292969 -4.53125 L 12.246094 -6.761719 L 12.417969 -7.300781 L 12.859375 -8.082031 L 14.992188 -13.128906 L 15.234375 -13.570312 L 15.652344 -14.453125 L 15.773438 -14.917969 L 16.238281 -15.773438 L 16.410156 -16.4375 L 16.289062 -16.949219 L 15.847656 -17.046875 L 15.332031 -17.097656 L 14.894531 -17.171875 L 14.425781 -17.121094 L 13.9375 -17.097656 L 13.007812 -17.195312 L 12.46875 -16.878906 L 12.050781 -16.460938 L 9.773438 -11.070312 L 9.625 -10.558594 L 9.40625 -10.140625 L 9.308594 -9.699219 L 9.0625 -9.257812 L 8.574219 -7.886719 L 8.328125 -7.445312 L 8.058594 -7.496094 L 7.445312 -8.816406 L 7.347656 -9.285156 L 6.933594 -10.117188 L 5.707031 -13.300781 L 5.070312 -14.597656 L 4.382812 -16.460938 L 3.96875 -16.878906 L 3.40625 -17.121094 L 2.007812 -17.171875 L 1.519531 -17.097656 L 0.585938 -17.097656 L 0.195312 -16.925781 L 0 -16.4375 L 0.785156 -14.355469 L 1.027344 -13.988281 L 1.152344 -13.519531 L 1.347656 -13.03125 L 1.617188 -12.664062 L 1.789062 -12.148438 L 3.992188 -7.203125 L 4.140625 -6.710938 L 4.753906 -5.4375 L 4.921875 -4.921875 L 5.339844 -4.089844 L 5.609375 -3.648438 L 5.730469 -3.160156 L 6.710938 -0.832031 L 6.933594 -0.464844 L 7.421875 -0.0507812 L 7.960938 0.148438 Z M 8.425781 0.21875 "/></g></g></g><g fill="#dcdcdc" fill-opacity="1"><g transform="translate(136.579419, 203.283649)"><g><path d="M 8.207031 0.0976562 L 9.1875 0.0507812 L 9.625 -0.195312 L 9.871094 -0.660156 L 9.871094 -3.085938 L 9.578125 -3.550781 L 9.039062 -3.820312 L 8.523438 -3.820312 L 7.9375 -4.015625 L 7.640625 -4.582031 L 7.714844 -5.046875 L 7.691406 -7.742188 L 7.742188 -8.28125 L 7.640625 -10.042969 L 7.742188 -12.515625 L 7.910156 -13.082031 L 8.449219 -13.300781 L 8.941406 -13.375 L 9.453125 -13.570312 L 9.699219 -13.960938 L 9.722656 -16.386719 L 9.429688 -16.851562 L 8.988281 -17.121094 L 6.027344 -17.121094 L 5.585938 -17.171875 L 5.09375 -17.074219 L 3.085938 -17.074219 L 2.621094 -17.148438 L 2.058594 -17.148438 L 1.566406 -16.902344 L 1.324219 -16.3125 L 1.394531 -14.5 L 1.347656 -14.035156 L 1.617188 -13.546875 L 2.15625 -13.277344 L 2.644531 -13.277344 L 3.109375 -12.980469 L 3.332031 -12.320312 L 3.40625 -4.800781 L 3.136719 -4.066406 L 1.519531 -3.578125 L 1.25 -3.136719 L 1.175781 -0.882812 L 1.421875 -0.21875 L 1.910156 0 L 2.375 0 L 2.839844 -0.0507812 L 3.550781 0.0507812 L 4.3125 0.0234375 L 4.800781 -0.0234375 L 5.78125 0.0742188 L 6.515625 -0.0234375 L 7.714844 -0.0234375 Z M 8.207031 0.0976562 "/></g></g></g><g fill="#dcdcdc" fill-opacity="1"><g transform="translate(147.698853, 203.283649)"><g><path d="M 14.453125 -0.417969 L 15.113281 -0.0234375 L 15.800781 0.0507812 L 16.339844 -0.121094 L 16.582031 -0.613281 L 16.632812 -9.554688 L 16.558594 -9.96875 L 16.558594 -12.394531 L 16.632812 -12.980469 L 16.558594 -16.386719 L 16.3125 -16.878906 L 15.824219 -17.148438 L 12.785156 -17.121094 L 12.320312 -16.851562 L 12.050781 -16.339844 L 12.027344 -15.824219 L 12.101562 -15.433594 L 12.027344 -14.402344 L 12.074219 -13.863281 L 12.027344 -9.480469 L 11.878906 -9.0625 L 11.511719 -9.234375 L 9.773438 -10.972656 L 9.085938 -11.511719 L 4.261719 -16.386719 L 3.894531 -16.679688 L 3.332031 -16.976562 L 2.597656 -17.148438 L 2.03125 -16.902344 L 1.8125 -16.4375 L 1.8125 -9.015625 L 1.789062 -8.597656 L 1.835938 -7.59375 L 1.761719 -7.175781 L 1.8125 -3.160156 L 1.761719 -2.695312 L 1.8125 -0.636719 L 2.03125 -0.171875 L 2.546875 0 L 3.550781 0.0507812 L 4.089844 0 L 5.046875 0.0742188 L 5.558594 0.0507812 L 6.050781 -0.195312 L 6.296875 -0.957031 L 6.320312 -7.152344 L 6.367188 -7.640625 L 6.539062 -8.058594 L 6.859375 -7.9375 L 7.175781 -7.519531 L 8.917969 -5.855469 L 9.234375 -5.488281 L 9.652344 -5.21875 L 13.449219 -1.445312 L 14.085938 -0.734375 Z M 14.453125 -0.417969 "/></g></g></g><g fill="#dcdcdc" fill-opacity="1"><g transform="translate(166.165931, 203.283649)"><g><path d="M 8.5 0.246094 L 10.949219 0.246094 L 12.785156 -0.195312 L 14.527344 -1.078125 L 15.285156 -1.664062 L 15.652344 -2.058594 L 16.019531 -2.351562 L 16.3125 -2.695312 L 16.558594 -3.109375 L 16.777344 -3.550781 L 17.074219 -3.894531 L 17.5625 -5.339844 L 17.757812 -6.269531 L 17.785156 -6.6875 L 17.882812 -7.128906 L 17.882812 -7.617188 L 17.929688 -8.082031 L 17.882812 -9.015625 L 17.636719 -9.429688 L 17.171875 -9.675781 L 16.65625 -9.699219 L 16.140625 -9.773438 L 12.835938 -9.699219 L 11.367188 -9.796875 L 10.433594 -9.722656 L 9.945312 -9.480469 L 9.722656 -9.015625 L 9.722656 -6.6875 L 9.945312 -6.296875 L 10.386719 -6.027344 L 11.097656 -5.976562 L 12.320312 -6.074219 L 12.761719 -6 L 13.128906 -5.828125 L 13.203125 -5.414062 L 12.957031 -4.996094 L 12.589844 -4.582031 L 12.246094 -4.3125 L 11.4375 -3.992188 L 10.484375 -3.773438 L 9.847656 -3.746094 L 8.597656 -3.894531 L 7.273438 -4.433594 L 6.539062 -5.121094 L 6.269531 -5.460938 L 5.804688 -6.34375 L 5.609375 -7.054688 L 5.488281 -7.839844 L 5.460938 -9.257812 L 5.632812 -10.214844 L 6.027344 -11.097656 L 6.785156 -12.246094 L 7.640625 -12.859375 L 8.058594 -13.082031 L 8.523438 -13.128906 L 8.941406 -13.324219 L 10.433594 -13.375 L 11.339844 -13.128906 L 11.804688 -12.933594 L 12.273438 -12.613281 L 12.566406 -12.296875 L 12.882812 -11.878906 L 13.398438 -11.464844 L 13.988281 -11.292969 L 14.746094 -11.269531 L 15.480469 -11.367188 L 16.65625 -11.292969 L 17.269531 -11.5625 L 17.414062 -11.976562 L 17.074219 -12.980469 L 16.851562 -13.421875 L 15.871094 -14.84375 L 15.332031 -15.285156 L 14.941406 -15.652344 L 14.574219 -15.945312 L 12.859375 -16.851562 L 12.34375 -16.949219 L 11.195312 -17.269531 L 8.917969 -17.367188 L 8.425781 -17.34375 L 8.011719 -17.195312 L 7.542969 -17.171875 L 5.660156 -16.484375 L 4.3125 -15.652344 L 3.234375 -14.695312 L 2.914062 -14.304688 L 2.546875 -13.9375 L 2.277344 -13.570312 L 1.371094 -11.734375 L 0.929688 -9.308594 L 0.90625 -8.523438 L 1.027344 -6.808594 L 1.714844 -4.507812 L 2.15625 -3.675781 L 2.71875 -2.839844 L 3.699219 -1.8125 L 4.507812 -1.25 L 6.195312 -0.269531 L 6.613281 -0.148438 L 8.011719 0.0976562 Z M 8.5 0.246094 "/></g></g></g><g fill="#dcdcdc" fill-opacity="1"><g transform="translate(131.510775, 183.894408)"><g><path d="M 4.207031 0.0390625 L 4.617188 0.0390625 L 5.042969 -0.0117188 L 5.316406 -0.0117188 L 5.710938 -0.136719 L 6.273438 -0.230469 L 6.914062 -0.503906 L 7.828125 -1.121094 L 8.5 -1.980469 L 8.636719 -2.253906 L 8.800781 -2.472656 L 9.019531 -3.007812 L 9.085938 -3.265625 L 9.140625 -3.554688 L 9.222656 -3.785156 L 9.265625 -4.058594 L 9.265625 -4.34375 L 9.304688 -4.78125 L 9.292969 -5.179688 L 9.101562 -6.257812 L 8.921875 -6.777344 L 8.8125 -7.039062 L 8.347656 -7.761719 L 7.625 -8.566406 L 6.929688 -9.03125 L 6.667969 -9.183594 L 6.394531 -9.238281 L 6.164062 -9.347656 L 5.875 -9.414062 L 5.070312 -9.539062 L 1.953125 -9.566406 L 1.707031 -9.523438 L 1.433594 -9.539062 L 1.132812 -9.414062 L 1.011719 -9.128906 L 0.996094 -1.488281 L 1.023438 -1.230469 L 1.023438 -0.53125 L 1.160156 -0.109375 L 1.433594 0.0273438 L 1.707031 0 L 3.375 0.0273438 L 3.648438 -0.0117188 Z M 4.167969 -2.199219 L 3.90625 -2.226562 L 3.59375 -2.378906 L 3.484375 -2.636719 L 3.472656 -2.871094 L 3.484375 -3.429688 L 3.429688 -4.097656 L 3.484375 -4.78125 L 3.457031 -6.667969 L 3.484375 -6.902344 L 3.621094 -7.214844 L 4.058594 -7.3125 L 4.632812 -7.324219 L 5.027344 -7.285156 L 5.5625 -7.132812 L 5.808594 -7.011719 L 6.011719 -6.859375 L 6.21875 -6.667969 L 6.421875 -6.421875 L 6.558594 -6.191406 L 6.683594 -5.945312 L 6.902344 -4.742188 L 6.765625 -3.785156 L 6.53125 -3.28125 L 6.027344 -2.707031 L 5.5625 -2.40625 L 5.164062 -2.28125 L 4.578125 -2.214844 Z M 4.167969 -2.199219 "/></g></g></g><g fill="#dcdcdc" fill-opacity="1"><g transform="translate(141.444555, 183.894408)"><g><path d="M 4.578125 0.0546875 L 5.125 0.0273438 L 5.371094 -0.109375 L 5.507812 -0.367188 L 5.507812 -1.722656 L 5.34375 -1.980469 L 5.042969 -2.132812 L 4.753906 -2.132812 L 4.425781 -2.242188 L 4.261719 -2.554688 L 4.304688 -2.816406 L 4.289062 -4.316406 L 4.316406 -4.617188 L 4.261719 -5.601562 L 4.316406 -6.984375 L 4.414062 -7.296875 L 4.714844 -7.421875 L 4.988281 -7.460938 L 5.273438 -7.570312 L 5.410156 -7.789062 L 5.425781 -9.140625 L 5.261719 -9.402344 L 5.015625 -9.550781 L 3.363281 -9.550781 L 3.117188 -9.578125 L 2.84375 -9.523438 L 1.722656 -9.523438 L 1.460938 -9.566406 L 1.148438 -9.566406 L 0.875 -9.429688 L 0.738281 -9.101562 L 0.777344 -8.089844 L 0.75 -7.828125 L 0.902344 -7.558594 L 1.203125 -7.40625 L 1.476562 -7.40625 L 1.734375 -7.242188 L 1.859375 -6.875 L 1.898438 -2.679688 L 1.75 -2.269531 L 0.847656 -1.996094 L 0.695312 -1.75 L 0.65625 -0.492188 L 0.792969 -0.121094 L 1.066406 0 L 1.324219 0 L 1.585938 -0.0273438 L 1.980469 0.0273438 L 2.40625 0.0117188 L 2.679688 -0.0117188 L 3.226562 0.0390625 L 3.636719 -0.0117188 L 4.304688 -0.0117188 Z M 4.578125 0.0546875 "/></g></g></g><g fill="#dcdcdc" fill-opacity="1"><g transform="translate(147.648042, 183.894408)"><g><path d="M 5.480469 0.175781 L 6.695312 0.0546875 L 7.214844 -0.109375 L 8.429688 -0.65625 L 9.386719 -1.570312 L 9.566406 -1.816406 L 10.097656 -2.761719 L 10.195312 -3.019531 L 10.234375 -3.292969 L 10.316406 -3.511719 L 10.371094 -3.8125 L 10.441406 -4.769531 L 10.371094 -5.710938 L 10.261719 -6.21875 L 10.152344 -6.503906 L 10.085938 -6.820312 L 9.839844 -7.269531 L 9.742188 -7.515625 L 9.566406 -7.75 L 9.402344 -7.910156 L 9.222656 -8.15625 L 8.636719 -8.691406 L 7.9375 -9.128906 L 6.148438 -9.6875 L 5.507812 -9.703125 L 4.550781 -9.648438 L 4.277344 -9.59375 L 4.003906 -9.511719 L 3.757812 -9.402344 L 3.238281 -9.265625 L 2.542969 -8.828125 L 2.351562 -8.664062 L 1.914062 -8.363281 L 1.542969 -7.953125 L 1.078125 -7.269531 L 0.957031 -7.039062 L 0.695312 -6.285156 L 0.585938 -5.699219 L 0.53125 -4.113281 L 0.683594 -3.253906 L 0.886719 -2.789062 L 0.96875 -2.5 L 1.105469 -2.253906 L 1.75 -1.378906 L 2.132812 -1.011719 L 2.308594 -0.804688 L 3.238281 -0.3125 L 3.5 -0.203125 L 4.660156 0.136719 Z M 5.097656 -2.226562 L 4.824219 -2.324219 L 4.578125 -2.351562 L 4.113281 -2.597656 L 3.691406 -2.964844 L 3.554688 -3.15625 L 3.375 -3.347656 L 3.117188 -4.113281 L 3.046875 -4.796875 L 3.0625 -5.207031 L 3.15625 -5.710938 L 3.238281 -5.957031 L 3.402344 -6.148438 L 3.527344 -6.382812 L 3.703125 -6.601562 L 3.90625 -6.777344 L 4.304688 -7.050781 L 4.550781 -7.175781 L 4.835938 -7.242188 L 5.464844 -7.296875 L 6.121094 -7.257812 L 6.847656 -6.941406 L 7.269531 -6.628906 L 7.585938 -6.164062 L 7.695312 -5.917969 L 7.773438 -5.644531 L 7.871094 -5.398438 L 7.925781 -4.808594 L 7.84375 -4.125 L 7.722656 -3.566406 L 7.570312 -3.363281 L 7.449219 -3.15625 L 7.285156 -2.910156 L 6.859375 -2.582031 L 6.613281 -2.472656 L 6.394531 -2.351562 L 6.148438 -2.324219 L 5.890625 -2.253906 Z M 5.097656 -2.226562 "/></g></g></g><g fill="#dcdcdc" fill-opacity="1"><g transform="translate(158.606617, 183.894408)"><g><path d="M 4.699219 0.175781 L 5.109375 0.136719 L 5.371094 0.148438 L 6.4375 -0.121094 L 6.929688 -0.382812 L 7.378906 -0.683594 L 7.761719 -1.066406 L 8.074219 -1.542969 L 8.15625 -1.816406 L 8.292969 -2.050781 L 8.417969 -2.625 L 8.484375 -3.28125 L 8.484375 -6.96875 L 8.457031 -7.230469 L 8.484375 -7.53125 L 8.457031 -7.75 L 8.457031 -8.882812 L 8.5 -9.15625 L 8.320312 -9.441406 L 8.019531 -9.539062 L 7.160156 -9.511719 L 6.585938 -9.550781 L 6.300781 -9.414062 L 6.148438 -9.113281 L 6.175781 -3.730469 L 6.082031 -2.882812 L 6 -2.679688 L 5.847656 -2.40625 L 5.617188 -2.242188 L 5.136719 -2.0625 L 4.316406 -2.0625 L 4.003906 -2.132812 L 3.773438 -2.269531 L 3.554688 -2.433594 L 3.390625 -2.652344 L 3.308594 -2.910156 L 3.226562 -3.703125 L 3.265625 -8.101562 L 3.238281 -8.308594 L 3.265625 -8.746094 L 3.238281 -9.140625 L 3.074219 -9.441406 L 2.789062 -9.566406 L 2.527344 -9.566406 L 2.253906 -9.523438 L 1.667969 -9.578125 L 1.378906 -9.539062 L 1.09375 -9.429688 L 0.914062 -9.167969 L 0.941406 -8.894531 L 0.941406 -8.566406 L 0.914062 -8.347656 L 0.957031 -6.4375 L 0.914062 -6.164062 L 0.941406 -5.902344 L 0.902344 -3.703125 L 0.984375 -2.609375 L 1.121094 -2.050781 L 1.339844 -1.585938 L 1.652344 -1.09375 L 1.816406 -0.902344 L 2.023438 -0.722656 L 2.460938 -0.4375 L 2.734375 -0.3125 L 2.9375 -0.191406 L 3.457031 0.0390625 L 3.988281 0.148438 L 4.261719 0.148438 Z M 4.699219 0.175781 "/></g></g></g><g fill="#dcdcdc" fill-opacity="1"><g transform="translate(168.03482, 183.894408)"><g><path d="M 0.996094 -0.394531 L 1.132812 -0.136719 L 1.433594 0 L 2.390625 0.0390625 L 3.074219 -0.0117188 L 3.363281 -0.136719 L 3.527344 -0.546875 L 3.484375 -0.984375 L 3.511719 -1.242188 L 3.5 -2.691406 L 3.621094 -2.964844 L 3.894531 -3.089844 L 4.195312 -3.117188 L 4.480469 -3.0625 L 4.753906 -3.117188 L 5.027344 -3.089844 L 5.316406 -3.101562 L 5.589844 -3.074219 L 6.148438 -3.101562 L 6.4375 -3.238281 L 6.574219 -3.664062 L 6.558594 -4.878906 L 6.421875 -5.152344 L 6.136719 -5.261719 L 5.464844 -5.289062 L 4.742188 -5.234375 L 4.207031 -5.300781 L 3.90625 -5.289062 L 3.636719 -5.398438 L 3.484375 -5.683594 L 3.484375 -6.066406 L 3.511719 -6.328125 L 3.484375 -6.941406 L 3.621094 -7.214844 L 3.882812 -7.394531 L 4.316406 -7.394531 L 4.714844 -7.367188 L 4.960938 -7.378906 L 5.234375 -7.367188 L 5.519531 -7.394531 L 6.558594 -7.367188 L 6.832031 -7.503906 L 6.96875 -7.773438 L 6.941406 -8.472656 L 6.96875 -8.992188 L 6.804688 -9.402344 L 6.574219 -9.550781 L 5.753906 -9.539062 L 5.453125 -9.578125 L 4.917969 -9.550781 L 4.671875 -9.578125 L 4.261719 -9.550781 L 3.988281 -9.566406 L 3.566406 -9.539062 L 3.035156 -9.539062 L 2.789062 -9.566406 L 2.089844 -9.566406 L 1.804688 -9.539062 L 1.421875 -9.550781 L 1.121094 -9.402344 L 1.039062 -9.15625 L 0.996094 -8.59375 L 1.039062 -8.183594 L 0.984375 -6.65625 L 1.011719 -6.421875 L 1.023438 -6.136719 L 0.996094 -5.890625 L 1.023438 -5.574219 L 0.996094 -5.328125 L 0.984375 -5.070312 L 1.011719 -4.808594 L 0.984375 -4.496094 Z M 0.996094 -0.394531 "/></g></g></g><g fill="#dcdcdc" fill-opacity="1"><g transform="translate(175.481731, 183.894408)"><g><path d="M 3.128906 -0.410156 L 3.238281 -0.109375 L 3.527344 0 L 3.800781 0.0117188 L 4.042969 -0.0117188 L 4.46875 0.0117188 L 4.851562 -0.0117188 L 5.125 0.0117188 L 5.398438 -0.136719 L 5.507812 -0.421875 L 5.546875 -2.007812 L 5.519531 -2.28125 L 5.519531 -2.554688 L 5.5625 -2.800781 L 5.546875 -3.59375 L 5.628906 -3.988281 L 5.765625 -4.34375 L 7.503906 -7.203125 L 7.667969 -7.394531 L 8.539062 -8.839844 L 8.691406 -9.183594 L 8.636719 -9.484375 L 8.390625 -9.539062 L 7.855469 -9.550781 L 7.570312 -9.523438 L 7.296875 -9.566406 L 6.765625 -9.550781 L 6.53125 -9.566406 L 6.164062 -9.429688 L 5.917969 -9.195312 L 5.5625 -8.609375 L 5.398438 -8.199219 L 5.097656 -7.761719 L 4.960938 -7.476562 L 4.824219 -7.242188 L 4.589844 -6.722656 L 4.414062 -6.492188 L 4.261719 -6.492188 L 4.113281 -6.75 L 3.960938 -6.96875 L 3.554688 -7.734375 L 3.402344 -7.964844 L 2.761719 -9.167969 L 2.472656 -9.429688 L 2.160156 -9.550781 L 1.871094 -9.539062 L 1.640625 -9.59375 L 0.941406 -9.539062 L 0.3125 -9.578125 L 0.0390625 -9.441406 L 0 -9.140625 L 0.136719 -8.828125 L 0.722656 -7.855469 L 0.875 -7.667969 L 1.433594 -6.695312 L 1.761719 -6.257812 L 1.871094 -6.011719 L 2.925781 -4.34375 L 3.0625 -3.960938 L 3.128906 -3.59375 L 3.117188 -2.515625 L 3.144531 -2.242188 L 3.117188 -1.1875 L 3.144531 -0.929688 Z M 3.128906 -0.410156 "/></g></g></g></svg>